<?xml version="1.0" standalone="no"?>
<!DOCTYPE svg PUBLIC "-//W3C//DTD SVG 20010904//EN"
 "http://www.w3.org/TR/2001/REC-SVG-20010904/DTD/svg10.dtd">
<svg version="1.0" xmlns="http://www.w3.org/2000/svg"
 width="717.000000pt" height="408.000000pt" viewBox="0 0 717.000000 408.000000"
 preserveAspectRatio="xMidYMid meet">
<metadata>
Created by potrace 1.16, written by Peter Selinger 2001-2019
</metadata>
<g transform="translate(0.000000,408.000000) scale(0.100000,-0.100000)"
fill="#000000" stroke="none">
<path d="M4415 3523 c-607 -20 -1081 -46 -1580 -88 -284 -24 -297 -26 -375
-35 -41 -5 -136 -17 -210 -25 -269 -30 -575 -79 -840 -135 -147 -30 -235 -55
-385 -107 -137 -48 -245 -97 -245 -112 0 -8 49 -123 55 -129 2 -2 27 14 57 36
214 161 642 283 1338 381 567 81 1373 147 2153 177 89 3 180 8 202 10 22 2
324 7 670 11 377 5 584 10 515 14 -110 6 -1189 8 -1355 2z"/>
<path d="M5963 3503 c26 -2 67 -2 90 0 23 2 2 3 -48 3 -49 0 -68 -1 -42 -3z"/>
<path d="M6148 3493 c12 -2 30 -2 40 0 9 3 -1 5 -23 4 -22 0 -30 -2 -17 -4z"/>
<path d="M6258 3483 c7 -3 16 -2 19 1 4 3 -2 6 -13 5 -11 0 -14 -3 -6 -6z"/>
<path d="M4960 3470 c-370 -14 -920 -46 -1165 -69 -55 -6 -181 -17 -280 -26
-99 -9 -272 -28 -385 -41 -113 -14 -241 -29 -285 -34 -44 -5 -125 -17 -180
-25 -55 -8 -134 -20 -175 -25 -41 -6 -95 -15 -120 -20 -25 -5 -85 -16 -135
-25 -466 -83 -866 -204 -1081 -326 -81 -46 -188 -142 -181 -162 2 -7 18 -21
35 -32 18 -11 61 -41 96 -67 l63 -46 31 25 32 24 0 -346 c0 -312 2 -347 16
-341 8 3 70 18 137 32 67 14 128 28 134 30 10 3 13 89 13 387 l0 385 83 35
c132 57 197 79 212 73 13 -5 15 -65 15 -406 0 -220 3 -400 8 -400 4 0 49 9
100 21 l92 21 0 422 0 422 73 21 c98 28 447 113 467 113 7 0 10 -139 10 -435
0 -239 1 -435 3 -435 2 0 26 6 53 14 27 8 66 17 87 20 l37 7 0 434 c0 404 1
434 18 439 19 5 164 32 227 42 22 3 74 12 115 20 41 8 83 14 93 14 16 0 17
-27 17 -421 l0 -421 23 6 c12 3 46 10 75 16 l52 12 0 413 c0 385 1 414 18 419
9 2 55 9 102 15 47 6 137 18 200 26 63 8 131 15 151 15 l36 0 7 -377 c4 -208
9 -379 11 -381 1 -1 29 3 61 10 l59 14 0 373 0 374 25 8 c33 9 321 32 327 25
3 -3 5 -153 5 -334 l0 -330 36 -6 c79 -13 72 -46 72 339 0 322 1 345 18 346 9
0 80 6 157 13 77 7 143 11 148 9 4 -2 7 -137 7 -299 0 -227 3 -296 13 -298 6
-3 29 -7 50 -10 l37 -5 0 309 0 309 43 5 c23 3 79 7 125 10 l82 5 0 -290 c0
-261 2 -291 16 -285 9 3 29 6 45 6 l29 0 0 284 0 283 38 7 c20 3 63 6 95 6 48
0 57 -3 57 -17 -2 -107 8 -495 13 -499 3 -4 18 -4 32 0 l25 6 0 254 0 254 31
6 c17 3 53 6 80 6 l49 0 2 -177 c2 -215 5 -293 11 -300 3 -3 15 -2 26 2 20 6
21 12 21 240 l0 233 61 4 c33 1 63 1 65 -1 2 -2 4 -101 4 -219 0 -191 2 -213
16 -208 9 3 20 6 25 6 5 0 10 96 11 213 l3 212 48 3 47 3 0 -195 c0 -108 3
-196 6 -196 3 0 14 5 25 10 18 10 19 23 19 190 l0 178 30 7 c16 4 34 4 40 0 6
-4 10 -67 10 -165 0 -87 4 -161 9 -164 5 -4 17 -3 26 0 14 6 16 26 14 167 l-2
161 29 1 29 0 3 -147 c2 -123 5 -148 17 -148 13 0 15 24 15 143 0 79 3 146 6
149 3 3 14 4 25 1 18 -5 19 -15 19 -134 0 -71 4 -129 9 -129 12 0 24 145 16
198 -7 50 -2 62 25 55 18 -5 20 -15 22 -114 l3 -109 35 18 35 17 3 108 c3 110
2 112 -39 108 -8 -1 -60 6 -115 15 -83 14 -188 17 -639 19 -297 1 -632 -1
-745 -5z"/>
<path d="M6333 3473 c9 -2 23 -2 30 0 6 3 -1 5 -18 5 -16 0 -22 -2 -12 -5z"/>
<path d="M1230 1040 l0 -640 150 0 150 0 0 640 0 640 -150 0 -150 0 0 -640z"/>
<path d="M1840 1040 l0 -640 145 0 145 0 0 180 0 180 148 0 c81 0 186 4 233 9
150 16 282 82 355 178 66 87 105 244 86 350 -35 196 -142 309 -346 362 -73 19
-108 21 -423 21 l-343 0 0 -640z m673 399 c44 -12 111 -69 134 -113 18 -35 21
-146 5 -187 -16 -40 -61 -88 -106 -112 -37 -20 -58 -22 -228 -25 l-188 -4 0
226 0 226 173 0 c94 0 189 -5 210 -11z"/>
<path d="M3190 1040 l0 -640 145 0 144 0 1 392 c0 215 2 393 3 394 1 2 25 -25
52 -59 55 -67 186 -225 400 -483 77 -92 153 -185 168 -206 l29 -38 124 0 124
0 0 640 0 640 -140 0 -140 0 0 -391 c0 -252 -3 -389 -10 -387 -5 2 -87 98
-182 214 -95 116 -238 290 -318 387 l-145 176 -127 1 -128 0 0 -640z"/>
<path d="M5900 1495 l0 -125 -75 0 -75 0 0 -110 0 -110 74 0 74 0 4 -262 c3
-245 5 -266 26 -311 66 -145 194 -209 382 -192 66 6 163 35 182 53 6 7 -42
185 -53 197 -3 3 -22 -2 -42 -10 -47 -19 -120 -19 -158 1 -53 27 -59 59 -59
303 l0 220 123 3 122 3 0 105 0 105 -122 3 -123 3 0 124 0 125 -140 0 -140 0
0 -125z"/>
<path d="M4983 1386 c-263 -66 -426 -329 -368 -593 32 -148 111 -259 233 -331
149 -86 379 -105 544 -42 64 24 178 103 178 123 0 7 -32 46 -71 86 l-71 73
-43 -31 c-62 -45 -119 -63 -202 -63 -132 0 -232 51 -276 144 -14 29 -23 56
-21 60 3 5 174 8 380 8 l374 0 0 74 c0 158 -45 273 -145 372 -47 46 -81 69
-141 94 -72 31 -89 34 -199 36 -76 2 -139 -1 -172 -10z m218 -202 c31 -9 73
-29 92 -45 38 -31 77 -101 77 -137 l0 -22 -246 0 -245 0 6 23 c27 94 91 158
182 183 63 17 67 17 134 -2z"/>
</g>
</svg>
